<?xml version="1.0" standalone="no"?><!DOCTYPE svg PUBLIC "-//W3C//DTD SVG 1.1//EN" "http://www.w3.org/Graphics/SVG/1.1/DTD/svg11.dtd"><svg t="1782373108297" class="icon" viewBox="0 0 1092 1024" version="1.1" xmlns="http://www.w3.org/2000/svg" p-id="2137" xmlns:xlink="http://www.w3.org/1999/xlink" width="213.28125" height="200"><path d="M160 160q160-160 386.133333-160t386.133334 160q160 160 160 386.133333 0 157.866667-83.2 290.133334h-305.066667l-8.533333-29.866667h290.133333l-25.6-32h-275.2l-8.533333-29.866667h260.266666l-27.733333-36.266666h-241.066667l-8.533333-27.733334h230.4l-32-40.533333h-209.066667l-6.4-21.333333h198.4l-36.266666-44.8h-174.933334l-4.266666-17.066667h166.4l-38.4-53.333333h-142.933334l-2.133333-10.666667h136.533333l-192-245.333333q-2.133333-2.133333-6.4-2.133334t-6.4 2.133334L83.2 836.266667Q0 704 0 546.133333 0 320 160 160z m552.533333 708.266667h273.066667q-10.666667 17.066667-23.466667 29.866666h-241.066666z m17.066667 64h202.666667q-14.933333 14.933333-32 29.866666h-162.133334z m17.066667 61.866666h110.933333q-25.6 17.066667-46.933333 29.866667h-55.466667z" fill="#1296db" p-id="2138"></path></svg>