<?xml version="1.0" standalone="no"?><!DOCTYPE svg PUBLIC "-//W3C//DTD SVG 1.1//EN" "http://www.w3.org/Graphics/SVG/1.1/DTD/svg11.dtd"><svg t="1782373105840" class="icon" viewBox="0 0 1024 1024" version="1.1" xmlns="http://www.w3.org/2000/svg" p-id="1991" xmlns:xlink="http://www.w3.org/1999/xlink" width="200" height="200"><path d="M178.592 231.296c-78.72-0.16-184.16 49.888-178.336 175.36 9.088 196 209.92 214.176 290.176 215.776 8.8 36.768 103.264 163.584 173.184 170.24h306.336c183.712-12.192 321.28-555.616 219.296-557.664-168.672 7.936-268.64 11.936-354.336 12.64v169.6l-26.72-11.808-0.16-157.696c-98.4-0.032-184.992-4.608-349.408-12.704-20.576-0.128-49.248-3.616-80.032-3.712z m11.136 69.344h9.376c11.168 100.48 29.344 159.232 66.144 248.992-93.856-11.104-173.728-38.368-188.416-140.16-7.584-52.704 18.016-107.68 112.896-108.832z m365.12 98.752c6.4 0.096 12.928 1.28 19.072 4.096l31.968 13.792-22.912 41.76h-0.224a31.872 31.872 0 0 0-10.272 1.696l0.192-0.064c-11.168 3.648-18.976 12.992-18.976 23.968 0 3.104 0.608 6.048 1.76 8.8l-0.064-0.192a24.544 24.544 0 0 0 4.832 7.456l-0.032-0.032-39.52 71.936a31.68 31.68 0 0 0-9.664 1.664l0.192-0.064c-11.168 3.648-18.976 12.992-18.976 23.968 0 3.104 0.608 6.048 1.76 8.8l-0.064-0.192c4.096 9.92 14.624 16.864 26.976 16.864a31.584 31.584 0 0 0 9.92-1.568l-0.192 0.064c11.136-3.648 18.944-12.992 18.944-23.968 0-3.104-0.64-6.08-1.792-8.864l0.064 0.192a25.088 25.088 0 0 0-6.752-9.376l38.496-70.048a31.968 31.968 0 0 0 12.704-1.312l-0.192 0.064a30.144 30.144 0 0 0 9.12-4.8l-0.032 0.032c14.848 6.24 27.008 11.296 35.744 15.616 13.152 6.496 17.792 10.784 19.2 15.584 1.408 4.704-0.128 13.728-7.552 29.6-5.536 11.808-14.72 28.576-25.568 48.352h-0.64a31.712 31.712 0 0 0-10.272 1.696l0.192-0.064c-11.168 3.648-18.976 12.992-18.976 23.968 0 3.104 0.608 6.048 1.76 8.8l-0.064-0.192c4.096 9.92 14.624 16.864 26.976 16.864a31.584 31.584 0 0 0 9.92-1.568l-0.192 0.064c11.136-3.648 18.944-12.992 18.944-23.968a22.496 22.496 0 0 0-1.76-8.8l0.064 0.192a25.664 25.664 0 0 0-5.856-8.64l0.032 0.032c10.72-19.552 19.936-36.352 25.856-48.992 8.032-17.152 12.192-29.92 8.544-42.24s-14.944-20.352-29.856-27.744c-9.824-4.832-22.048-9.952-36.704-16.096a23.136 23.136 0 0 0-1.664-10.368l0.064 0.192a25.344 25.344 0 0 0-6.208-8.928l22.528-41.088 124.768 53.888c22.528 9.76 31.84 33.696 20.896 53.76l-85.76 157.024c-10.976 20-37.888 28.288-60.416 18.56l-176.512-76.288c-22.528-9.728-31.872-33.696-20.896-53.76l85.76-156.96c7.52-13.792 22.624-21.984 38.624-22.624z" fill="#111315" p-id="1992"></path></svg>