<?xml version="1.0" standalone="no"?><!DOCTYPE svg PUBLIC "-//W3C//DTD SVG 1.1//EN" "http://www.w3.org/Graphics/SVG/1.1/DTD/svg11.dtd"><svg t="1782374706441" class="icon" viewBox="0 0 1024 1024" version="1.1" xmlns="http://www.w3.org/2000/svg" p-id="1437" xmlns:xlink="http://www.w3.org/1999/xlink" width="200" height="200"><path d="M922.6606211 731.77527247q-23.26797084 74.5337961-73.31318196 148.99130466-76.89873789 116.79758672-153.18716819 116.79758672-29.21846857 0-83.45954321-19.07210732-51.26582526-19.07210731-90.02034748-19.07210731-36.38958147 0-84.60386981 19.6824149-48.29057692 20.2927225-78.65337209 20.2927225-90.55436649 0-179.43038841-154.33149479-87.57911815-155.55210998-87.57911815-299.8135321 0-135.86969508 67.36268423-222.91479422 66.75237664-85.82448395 169.28402716-85.82448395 42.95038678 0 105.50689886 17.85149317 62.0224941 17.85149317 82.23892802 17.85149318 26.85352782 0 85.21417636-20.29272251 60.80187892-20.2927225 103.14195812-20.2927225 70.94824017 0 126.94394797 38.75452222 30.97310276 21.4370491 62.02249409 59.58126374-47.06996173 39.89884883-67.97299182 70.33793257-38.75452222 55.9957078-38.75452222 123.35839204 0 73.92348955 41.11946401 132.89444568t94.13992347 75.06781512zM698.52521274 32.6680957q0 36.38958147-17.31747416 81.01831284-17.85149317 44.70501994-55.46168878 82.23892802-32.19371795 32.19371795-64.38743485 42.95038679-22.0473567 6.56080531-62.02249411 10.14636125 1.7546342-88.79973333 46.45965415-153.18716819 44.09471235-63.7771283 148.99130466-88.18942574 0.61030759 1.7546342 1.52576846 6.56080531t1.52576846 6.56080532q0 2.36494179 0.30515328 5.95049772t0.30515326 5.95049773z" fill="#444444" p-id="1438"></path></svg>