<?xml version="1.0" standalone="no"?><!DOCTYPE svg PUBLIC "-//W3C//DTD SVG 1.1//EN" "http://www.w3.org/Graphics/SVG/1.1/DTD/svg11.dtd"><svg t="1782374216016" class="icon" viewBox="0 0 1024 1024" version="1.1" xmlns="http://www.w3.org/2000/svg" p-id="1257" xmlns:xlink="http://www.w3.org/1999/xlink" width="200" height="200"><path d="M901.16114856 253.31199437l20.984179-47.46239887a16.67288403 16.67288403 0 0 0-3.28116206-18.0845475l-57.26773375-58.37417219a92.71192088 92.71192088 0 0 0-96.41276675-22.31953693l-16.10058916 5.5703464L661.140287 17.03013291 512.68675462 16h-1.03013193L362.17295838 17.25905047 274.61169913 113.55735844l-15.79536413-5.57034544a91.64363472 91.64363472 0 0 0-96.98506259 22.73921978l-58.37417219 59.3279986a13.58248725 13.58248725 0 0 0-2.975938 14.57446593l22.0143119 49.37005169L92.31640838 336.79087622l19.7251295 74.77998541 89.16368606 340.55415703a173.13855822 173.13855822 0 0 0 66.80599781 97.29028762s108.20205997 76.76394375 214.80169216 146.43141981c9.53826309 6.104489 19.30544472 10.45393625 29.87384072 10.45393722 10.41578397 0 20.29742437-4.31129497 29.83568843-10.568396a7856.85835722 7856.85835722 0 0 0 214.72538663-146.73664484 173.44378228 173.44378228 0 0 0 66.57707831-97.21398113l88.47693144-340.554158 19.38175219-75.161515-30.52244307-82.71582071z" fill="#EA3E25" p-id="1258"></path><path d="M249.65960247 838.73245053l195.07656362 131.62803534c79.05312713 51.08693922 72.2618835 62.57100837 73.52093494-45.55474606l-7.24908069-750.69948556-86.91265593 36.321708-111.483223-26.05853606-85.53914669-49.40820494c-16.44396647-9.53826309-51.85000034-4.00607091-69.85824134 12.17082475L102.54142706 203.14072831l22.89183278 61.35011116L92.31640838 347.24481247l113.08565175 422.62137637c7.24908069 26.09668834 23.27336237 48.72144934 44.25754234 68.86626169z" fill="#EC622B" p-id="1259"></path><path d="M522.11055894 631.56136866h-10.568396c-1.25905047 0-5.57034544 1.25905047-9.5382631 2.97593896l-42.50250156 17.85562897c-4.00607091 1.60242778-10.568396 4.57836675-14.53631365 6.4860186l-64.21158941 33.72729959c-3.96791766 1.90765281-4.31129497 5.57034544-0.68675463 8.16475385l56.73359019 40.28962468c3.62454034 2.51810191 9.15673253 6.86755012 12.47604881 9.80533488l25.29547494 21.74724109c3.28116303 3.0522445 8.50813116 7.63061028 11.82744647 10.56839503l24.11273 21.7472411c3.43377506 2.975938 8.50813116 2.975938 11.94190525 0l24.79948559-21.7472411c3.31931531-2.93778475 8.66074319-7.5161515 11.82744647-10.56839503l25.29547494-22.0906184c3.28116303-2.93778475 8.85150847-7.17277419 12.47604784-9.91979463l56.69543791-40.51854225c3.62454034-2.59440744 3.28116303-6.25710103-0.68675463-8.16475384l-64.17343615-33.04054497a333.64845462 333.64845462 0 0 0-14.49816041-6.60047835l-42.57880806-17.74116921a40.21331819 40.21331819 0 0 0-9.53826309-2.97593897z" fill="#FFFFFF" p-id="1260"></path><path d="M840.497793 354.30312788c0-4.34944822-0.22891853-11.52222241-0.91567316-15.83351738l-3.28116303-9.53826406a111.52137625 111.52137625 0 0 0-7.82137556-13.92586457l-37.12292141-54.94039712a150.51379722 150.51379722 0 0 0-9.53826406-12.89573166l-47.84392944-60.31997825c-2.59440744-3.31931531-5.22696812-6.25710103-5.57034543-5.91372372h-0.64860235l-7.85952881 1.25905144-73.13940438 14.57446594c-5.11250934 1.14459169-10.22501869 2.02211159-15.41383356 2.93778572l-1.25905047 0.22891756a41.58682841 41.58682841 0 0 1-15.41383356-0.91567316l-61.27380466-19.80143503c-4.31129497-1.25905047-11.21699738-3.28116303-15.07045625-4.19683522 0 0-12.47604881-3.0522445-22.70106653-2.74702043-10.18686544 0-22.5484545 2.74701947-22.54845547 2.74702043a181.37961759 181.37961759 0 0 0-15.10860853 4.19683522l-61.35011115 19.83958829c-4.19683619 1.33535697-11.14069184 1.5642755-15.45198585 0.99197965l-1.22089818-0.34337731c-4.31129497-0.68675462-11.14069184-2.40364216-15.45198682-2.93778572l-73.826159-13.88771131a61.12119166 61.12119166 0 0 0-7.82137556-1.37351022h-0.57229584a32.88793197 32.88793197 0 0 0-5.68480519 6.0281825L248.74392931 247.85610772c-2.63256069 3.31931531-6.82939687 9.23303903-9.53826406 12.74311962l-37.00846166 55.09301013c-2.82332597 4.57836675-5.41773341 9.11858025-7.89768206 13.88771131l-3.31931531 9.53826309a92.59746112 92.59746112 0 0 0-0.87752088 15.87167063s0 1.22089819 1.22089819 5.91372372c2.40364216 7.97398856 7.97398856 15.14676275 7.9739876 15.14676178 2.59440744 3.28116303 7.47799825 8.85150847 10.41578396 11.94190622l108.54543825 115.98528325c3.0522445 3.62454034 3.85345888 8.66074319 2.28918338 13.20095669l-22.58660775 53.7194999a23.57858741 23.57858741 0 0 0-0.34337828 14.80338447l6.25710103 16.86364931c5.18881487 14.15478309 14.11662984 26.70713744 25.82961753 36.169095l22.01431191 17.89378222c3.73899912 2.82332597 8.77520197 3.43377506 13.16280343 1.60242875l69.43855754-33.26946253c4.73097878-2.47994866 9.04227375-5.45588666 13.12465115-8.85150847l49.82788778-45.21136875a17.81747572 17.81747572 0 0 0 0.99197966-25.02840412L393.72553337 474.94308341a9.27119228 9.27119228 0 0 1-2.97593799-11.48406916l45.93627662-87.10342122a19.83958828 19.83958828 0 0 0 0.57229584-14.19293634l-5.5703464-12.89573263a22.51030125 22.51030125 0 0 0-10.415783-10.11055893L286.51545209 288.41280419c-3.96791766-1.71688753-3.96791766-3.31931531 0.22891854-3.6626936l86.87450365-8.20290612c4.31129497-0.34337731 11.21699738 0.22891853 15.41383356 1.25905047l77.45069935 21.74724012c4.19683619 1.33535697 6.86755012 5.57034544 6.14264128 9.91979463l-26.85974947 147.95754206c-0.57229584 4.31129497-0.57229584 10.22501869 0.34337731 13.544334 0.99197966 3.28116303 5.18881487 6.25710103 9.5382631 7.24908069l53.75765315 11.52222144c4.31129497 1.03013291 11.10253859 1.03013291 15.41383357 0l50.13311281-11.48406916c4.31129497-1.03013291 8.50813116-4.34944822 9.53826309-7.28723297a29.87384072 29.87384072 0 0 0 0.34337731-13.42987522l-26.5545254-148.11015409c-0.68675462-4.31129497 1.90765281-8.88966172 6.21894778-9.91979366l77.37439284-21.74724109c4.31129497-1.22089819 11.10253859-1.5642755 15.41383453-1.22089722l86.91265594 8.20290612c4.19683619 0.34337731 4.5402135 1.90765281 0.34337731 3.62454035l-134.75658537 51.46846881a20.83156697 20.83156697 0 0 0-10.568396 10.11055991l-5.53219316 12.8575784c-1.60242778 4.00607091-1.60242778 10.60654925 0.64860235 14.2310896l46.27965393 87.10342121a9.46195756 9.46195756 0 0 1-3.0522445 11.48406916l-104.57751962 71.15544603a17.70301694 17.70301694 0 0 0 1.03013194 25.14286194l49.7897355 45.05875672c3.28116303 2.975938 9.15673253 6.94385566 13.16280343 8.66074319l69.85824135 33.23130928c3.85345888 1.94580606 9.76718163 1.03013291 13.04834465-1.56427453l22.01431191-18.23715953a80.50294384 80.50294384 0 0 0 25.5243925-36.169095l6.21894778-16.86365029a22.81552628 22.81552628 0 0 0-0.22891853-14.80338446l-22.66291328-53.71949991a13.81140578 13.81140578 0 0 1 2.28918337-13.20095669l108.50728404-116.09974203c2.975938-3.31931531 7.47799825-8.54628441 10.568396-11.82744744-0.68675462-1.03013291 5.18881487-8.20290613 7.13462093-16.17689468 1.25905047-4.19683619 1.25905047-5.91372372 1.25905144-5.91372275z" fill="#FFFFFF" p-id="1261"></path></svg>