<?xml version="1.0" standalone="no"?><!DOCTYPE svg PUBLIC "-//W3C//DTD SVG 1.1//EN" "http://www.w3.org/Graphics/SVG/1.1/DTD/svg11.dtd"><svg t="1782373099684" class="icon" viewBox="0 0 1024 1024" version="1.1" xmlns="http://www.w3.org/2000/svg" p-id="1685" xmlns:xlink="http://www.w3.org/1999/xlink" width="200" height="200"><path d="M697.34305652 512.54361703c-0.18120568 103.19654916-83.32434271 184.92024361-187.91013471 184.67863536-100.26705961-0.18120568-182.62497342-84.35117419-182.29276284-186.2188831 0.39261213-103.16634839 83.47534761-184.40682735 188.39334916-184.10481858 99.81404594 0.30200877 181.96055329 84.16996852 181.80954839 185.64506632" fill="#4D8BF8" p-id="1686"></path><path d="M958.39982348 291.05005729h-14.76825083c-141.58192103 0-283.19404284-0.45301368-424.80616465 0.1510049-94.83089445 0.39261213-164.83663071 43.06651458-206.574304 128.56532336-10.78172903 22.13727587-15.37226942 47.32484439-22.6506911 70.60975484-0.4228129-0.66442013-2.41607329-3.44290477-4.16772748-6.37239433-53.1234209-90.90477419-106.15623948-181.90015071-159.49106684-272.6841218-3.77511535-6.34219355-3.2616991-10.17771045 1.38924181-15.6742782 85.95182348-101.77710555 194.49393548-162.05814606 326.92497755-178.33644283 202.25557265-24.88555974 402.78969187 80.24384929 497.71118864 260.81515974 1.87245729 3.5637089 3.59390968 7.18781935 6.4327969 12.92599432" fill="#DE5144" p-id="1687"></path><path d="M634.22312981 327.32136361c4.74154426-0.24160723 7.61063226-0.48321445 10.47972025-0.48321445 106.73005729 0 213.42991381 0.09060232 320.12976929-0.21140645 7.82203871 0 10.84213058 2.50667665 13.53001291 9.66429523 75.10969187 200.77572748 15.07025961 426.01420077-151.004608 561.34453058-97.06576206 79.0660129-208.92997574 116.03194116-334.11279691 112.43803148-3.98652181-0.12080413-7.97304361-0.57381781-13.40920877-0.96642994 2.23486865-4.22812903 3.77511535-7.39922581 5.52676852-10.41931767 71.84799277-123.91438142 143.63558297-247.82876284 215.54397832-371.65254194 59.6770209-102.80393703 34.21764439-225.17807174-61.60988077-295.54621935-1.23823794-0.90602735-2.41607329-1.96305961-5.07375484-4.16772749" fill="#FFCE42" p-id="1688"></path><path d="M99.15340077 235.51056206l49.65031536 85.0457951 151.18581368 258.70109523c2.53687742 4.34893316 4.92274994 8.90927174 6.79520722 13.59041445 47.32484439 117.60238865 178.57805006 171.48083303 295.06300491 121.07549522 2.35567174-0.99663071 4.77174606-1.81205574 9.06027664-3.44290477-2.50667665 4.77174606-3.92612026 7.70123458-5.52676852 10.47971923-53.33482735 91.96180645-106.79045884 183.86321135-159.85347819 275.97602271-4.01672258 6.94621213-8.27505239 8.03344516-15.49307355 6.73480567-200.50391845-35.87869523-354.55882013-178.57805006-401.94406606-376.66589522-32.768-137.17258632-9.21128155-266.22112413 65.98901368-385.66576929a53.45563148 53.45563148 0 0 1 2.92948954-4.13752671c0.39261213-0.51341523 1.02683148-0.84562581 2.11406452-1.69125162" fill="#1CA361" p-id="1689"></path></svg>