<?xml version="1.0" standalone="no"?><!DOCTYPE svg PUBLIC "-//W3C//DTD SVG 1.1//EN" "http://www.w3.org/Graphics/SVG/1.1/DTD/svg11.dtd"><svg t="1782374814824" class="icon" viewBox="0 0 1024 1024" version="1.1" xmlns="http://www.w3.org/2000/svg" p-id="1320" xmlns:xlink="http://www.w3.org/1999/xlink" width="200" height="200"><path d="M910.83327063 753.95342578a317.95634084 317.95634084 0 0 1-40.67423976 18.20656447 396.12835594 396.12835594 0 0 1-139.06716153 25.17929081c-183.22776494 0-342.82573338-125.896456-342.82573434-287.81866687a121.55787037 121.55787037 0 0 1 63.52928909-105.75302219c-165.79594762 6.97272634-208.40705575 179.74140128-208.40705672 280.84593956 0 286.26917159 263.80149631 315.32220012 320.74543216 315.32220013 30.60252284 0 76.69999463-8.90959569 104.59090194-17.81919041l5.03585797-1.54949528a495.83834856 495.83834856 0 0 0 257.99089118-204.533319 15.49494797 15.49494797 0 0 0-4.64848487-21.30555406 16.3084335 16.3084335 0 0 0-16.26969513-0.77474716z" fill="#0F5197" p-id="1321"></path><path d="M425.45401206 951.12664437A307.88462491 307.88462491 0 0 1 337.52017931 868.61604366a312.64932103 312.64932103 0 0 1 114.27524478-464.84845166 128.33690969 128.33690969 0 0 1 60.04292447-15.49494894 126.24509169 126.24509169 0 0 1 99.55504397 50.3585826 124.77307219 124.77307219 0 0 1 24.79191772 72.43888381c0-0.77474716 94.90655909-308.34947281-309.89896809-308.34947378-170.05705844 0-309.89896809 161.53483681-309.8989681 302.92624175a505.21279313 505.21279313 0 0 0 46.87221894 216.92927737 496.10951041 496.10951041 0 0 0 605.85248253 259.92775957 293.55179719 293.55179719 0 0 1-243.65806347-31.37727z" fill="#0C88DA" p-id="1322"></path><path d="M605.9701605 592.80596206c-3.09898959 3.87373675-12.78333244 9.68434284-12.78333244 22.08030122 0 10.07171691 6.58535325 19.75605878 18.20656447 27.89090731 55.78181463 38.73737138 160.76008966 33.70151244 161.14746372 33.70151341a231.45579213 231.45579213 0 0 0 117.37423341-32.15201812 237.46008428 237.46008428 0 0 0 117.76160843-204.92069307c1.16212122-86.77171153-30.98989691-144.49039356-43.77322934-170.05705843a426.73087878 426.73087878 0 0 0-81.11605506-110.28529582 478.21284519 478.21284519 0 0 0-138.21493957-94.05433615A564.32602081 564.32602081 0 0 0 511.83834856 16.00650806 495.83834856 495.83834856 0 0 0 16 504.87213028c1.93686837-141.39140397 142.55352519-255.66664875 309.89896809-255.66664875 13.55807959 0 91.03282234 1.16212122 162.69695804 39.12474447 63.14191503 33.31413934 96.45605341 73.21363097 119.31110275 113.11312356 24.01716959 41.44898691 28.27828041 93.35706381 28.27828137 114.27524478s-10.45909 51.52070381-30.21514975 77.08736772z" fill="#2CC3D5" p-id="1323"></path><path d="M645.24985459 30.64923406s360.99356044 373.11835794-47.02716856 574.707636c0 0-26.38014944 43.81196675 99.63251878 66.47332906 0 0 208.75569241 45.36146106 293.00947447-138.05998993 16.96696844-57.52499597 32.07454331-146.65968638-12.78333244-245.86609466a414.48987003 414.48987003 0 0 0-74.56943922-110.13034522 529.30743753 529.30743753 0 0 0-109.54928606-91.73009469c-66.31837944-33.89519947-148.71276697-55.39444056-148.71276697-55.39444056z" fill="#49D668" p-id="1324"></path></svg>