<?xml version="1.0" standalone="no"?><!DOCTYPE svg PUBLIC "-//W3C//DTD SVG 1.1//EN" "http://www.w3.org/Graphics/SVG/1.1/DTD/svg11.dtd"><svg t="1782373102114" class="icon" viewBox="0 0 1024 1024" version="1.1" xmlns="http://www.w3.org/2000/svg" p-id="1834" xmlns:xlink="http://www.w3.org/1999/xlink" width="200" height="200"><path d="M1015.06645793 578.74608689L958.55901978 404.83367909l-111.99517847-344.69708859c-5.76031231-17.73440832-30.850762-17.73440832-36.61352552 0L697.94778373 404.83122789H326.03996029L214.03987942 60.13413931c-5.76031231-17.73440832-30.850762-17.73440832-36.61597671 0l-111.99517847 344.69708858-56.50498696 173.91731019a38.49849581 38.49849581 0 0 0 13.98407733 43.04301453l489.07502701 355.34018477L1001.06277103 621.79400381c13.49138679-9.8047869 19.13894405-27.18377171 13.98407733-43.04546573" fill="#FC6D26" p-id="1835"></path><path d="M512.0024512 977.13909096l185.95268612-572.31031427H326.04731388z" fill="#E24329" p-id="1836"></path><path d="M512.0049024 977.13909096L326.05221627 404.84593507H65.44833382z" fill="#FC6D26" p-id="1837"></path><path d="M65.43607784 404.83858147l-56.50988937 173.9173102a38.49604461 38.49604461 0 0 0 13.98652854 43.04301454L511.99019522 977.13909096z" fill="#FCA326" p-id="1838"></path><path d="M65.43852902 404.83122789h260.60388246L214.04233062 60.13413931c-5.76031231-17.73685952-30.85321321-17.73685952-36.61352552 0z" fill="#E24329" p-id="1839"></path><path d="M512.0024512 977.13909096l185.95268612-572.29070469H958.55901978z" fill="#FC6D26" p-id="1840"></path><path d="M958.57127576 404.83858147l56.50988936 173.9173102a38.49604461 38.49604461 0 0 1-13.98652853 43.04301454L512.01715838 977.13909096z" fill="#FCA326" p-id="1841"></path><path d="M958.54921499 404.83122789H697.94778373l112.00008086-344.69708858c5.76276351-17.73685952 30.85321321-17.73685952 36.61352551 0z" fill="#E24329" p-id="1842"></path></svg>