<?xml version="1.0" standalone="no"?><!DOCTYPE svg PUBLIC "-//W3C//DTD SVG 1.1//EN" "http://www.w3.org/Graphics/SVG/1.1/DTD/svg11.dtd"><svg t="1782373090519" class="icon" viewBox="0 0 1024 1024" version="1.1" xmlns="http://www.w3.org/2000/svg" p-id="1224" xmlns:xlink="http://www.w3.org/1999/xlink" width="200" height="200"><path d="M512 512m-499.2 0a499.2 499.2 0 1 0 998.4 0 499.2 499.2 0 1 0-998.4 0Z" fill="#1DA2F8" p-id="1225"></path><path d="M512 86.6855a6.0879 6.0879 0 0 1-6.0879-6.0879V52.7399a6.0879 6.0879 0 0 1 12.1758 0v27.8577A6.0879 6.0879 0 0 1 512 86.6855zM512 977.348a6.0879 6.0879 0 0 1-6.0879-6.0879v-27.8577a6.0879 6.0879 0 0 1 12.1758 0v27.8577A6.0879 6.0879 0 0 1 512 977.348zM437.081 93.2414a6.08985 6.08985 0 0 1-5.9904-5.03295l-4.83795-27.43455a6.08595 6.08595 0 1 1 11.99055-2.11185l4.83795 27.43455a6.08595 6.08595 0 0 1-6.00015 7.1448zM591.7433 970.37285a6.08985 6.08985 0 0 1-5.9904-5.03295l-4.83795-27.43455a6.08595 6.08595 0 0 1 4.9374-7.0512 6.0801 6.0801 0 0 1 7.05315 4.93935l4.83795 27.4326a6.08595 6.08595 0 0 1-6.00015 7.14675zM364.4513 112.7024a6.08985 6.08985 0 0 1-5.71935-4.00725l-9.52965-26.1768a6.09375 6.09375 0 0 1 3.64065-7.8039 6.08985 6.08985 0 0 1 7.8 3.6387l9.5277 26.1768a6.0879 6.0879 0 0 1-5.71935 8.17245zM669.0764 949.65215a6.08985 6.08985 0 0 1-5.71935-4.00725l-9.5277-26.1768a6.0879 6.0879 0 0 1 11.4387-4.1652l9.52965 26.1768a6.09375 6.09375 0 0 1-5.7213 8.17245zM296.30465 144.4835a6.0879 6.0879 0 0 1-5.27865-3.0459l-13.92885-24.1254a6.0879 6.0879 0 0 1 2.22885-8.3148 6.084 6.084 0 0 1 8.31675 2.2269l13.92885 24.1254a6.0879 6.0879 0 0 1-5.26695 9.1338zM741.6359 915.81965a6.0879 6.0879 0 0 1-5.27865-3.0459l-13.92885-24.1254a6.0879 6.0879 0 0 1 2.22885-8.3148 6.084 6.084 0 0 1 8.31675 2.2269l13.92885 24.1254a6.0879 6.0879 0 0 1-5.26695 9.1338zM234.7022 187.6136c-1.7355 0-3.4632-0.73905-4.66635-2.17425L212.129 164.1005a6.08985 6.08985 0 0 1 9.3288-7.8273l17.90685 21.33885a6.08595 6.08595 0 0 1-4.66245 10.00155zM807.20855 869.90105c-1.7355 0-3.4632-0.73905-4.66635-2.17425l-17.9049-21.33885a6.08595 6.08595 0 1 1 9.3288-7.8273l17.90295 21.33885a6.08595 6.08595 0 0 1-4.6605 10.00155zM181.52375 240.78815a6.04695 6.04695 0 0 1-3.9078-1.4235l-21.33885-17.90685a6.0879 6.0879 0 1 1 7.8234-9.3288l21.33885 17.90685a6.0879 6.0879 0 0 1-3.9156 10.7523zM863.80925 813.2945a6.0645 6.0645 0 0 1-3.9117-1.4235l-21.3369-17.90685a6.08985 6.08985 0 0 1 7.8273-9.3288l21.3369 17.90685a6.09375 6.09375 0 0 1 0.75075 8.57805 6.07815 6.07815 0 0 1-4.66635 2.17425zM138.3878 302.3867a6.06255 6.06255 0 0 1-3.0381-0.81705l-24.1254-13.92885a6.0879 6.0879 0 1 1 6.0879-10.5417l24.1254 13.92885a6.0879 6.0879 0 0 1-3.0498 11.35875zM909.72395 747.71795a6.0567 6.0567 0 0 1-3.0381-0.81705l-24.12345-13.92885a6.0879 6.0879 0 1 1 6.0879-10.5417l24.12345 13.92885a6.0879 6.0879 0 0 1-3.0498 11.35875zM106.6145 370.54115c-0.69225 0-1.39425-0.11895-2.08065-0.36855l-26.17875-9.5277a6.0879 6.0879 0 0 1 4.1613-11.4426l26.17875 9.5277a6.0879 6.0879 0 0 1-2.08065 11.81115zM943.56425 675.1643c-0.69225 0-1.39425-0.11895-2.08455-0.36855l-26.1768-9.5277a6.0879 6.0879 0 0 1 4.1691-11.4426l26.1768 9.5277a6.0879 6.0879 0 0 1-2.08455 11.81115zM87.15545 443.1767c-0.351 0-0.7059-0.0312-1.06275-0.0936l-27.43455-4.83795a6.0879 6.0879 0 0 1 2.11575-11.99055l27.43455 4.83795a6.0879 6.0879 0 0 1-1.053 12.08415zM964.2869 597.839c-0.351 0-0.7059-0.0312-1.06275-0.0936l-27.4326-4.83795a6.0879 6.0879 0 0 1 2.11575-11.99055l27.43455 4.83795a6.0879 6.0879 0 0 1-1.05495 12.08415zM80.59565 518.0879H52.7399a6.0879 6.0879 0 0 1 0-12.1758h27.85575a6.0879 6.0879 0 0 1 0 12.1758zM971.26205 518.0879h-27.85965a6.0879 6.0879 0 0 1 0-12.1758h27.85965a6.0879 6.0879 0 0 1 0 12.1758zM59.71115 597.839a6.08985 6.08985 0 0 1-1.053-12.08415l27.43455-4.83795a6.08595 6.08595 0 1 1 2.11575 11.99055l-27.43455 4.83795a6.201 6.201 0 0 1-1.06275 0.0936zM936.84065 443.1767a6.08985 6.08985 0 0 1-1.053-12.08415l27.43455-4.83795a6.08595 6.08595 0 1 1 2.11575 11.99055l-27.4326 4.83795a6.2049 6.2049 0 0 1-1.0647 0.0936zM80.4338 675.1643a6.08985 6.08985 0 0 1-2.08065-11.81115l26.17875-9.5277a6.0879 6.0879 0 0 1 4.1613 11.4426l-26.17875 9.5277a6.0138 6.0138 0 0 1-2.08065 0.36855zM917.38745 370.54115a6.08985 6.08985 0 0 1-2.08455-11.81115l26.1768-9.5277a6.08985 6.08985 0 0 1 4.1691 11.4426l-26.1768 9.5277a6.123 6.123 0 0 1-2.08455 0.36855zM114.2741 747.71795a6.0879 6.0879 0 0 1-3.0498-11.3607l24.1254-13.92885a6.0879 6.0879 0 0 1 6.0879 10.5417l-24.1254 13.92885a6.03915 6.03915 0 0 1-3.0381 0.819zM885.61415 302.3867a6.0879 6.0879 0 0 1-3.0498-11.3607l24.12345-13.92885a6.0879 6.0879 0 1 1 6.0879 10.5417l-24.12345 13.92885a6.045 6.045 0 0 1-3.0381 0.819zM160.1888 813.2945a6.08595 6.08595 0 0 1-3.91365-10.7523l21.33885-17.90685a6.08985 6.08985 0 0 1 7.8234 9.3288l-21.33885 17.90685a6.0528 6.0528 0 0 1-3.90975 1.4235zM842.4782 240.78815a6.0879 6.0879 0 0 1-3.9156-10.7523l21.3369-17.90685a6.0918 6.0918 0 0 1 7.8273 9.3288l-21.3369 17.90685c-1.1427 0.9555-2.52915 1.4235-3.9117 1.4235zM216.7895 869.90105a6.0879 6.0879 0 0 1-4.6605-10.00155l17.90685-21.33885a6.08985 6.08985 0 0 1 9.3288 7.8273l-17.90685 21.33885a6.08205 6.08205 0 0 1-4.6683 2.17425zM789.2978 187.6136a6.0879 6.0879 0 0 1-4.6605-10.00155l17.9049-21.33885a6.08985 6.08985 0 0 1 9.3288 7.8273l-17.90295 21.33885a6.084 6.084 0 0 1-4.67025 2.17425zM282.3641 915.81965a6.0879 6.0879 0 0 1-5.26695-9.13185l13.92885-24.1254a6.0801 6.0801 0 0 1 8.31675-2.2269 6.0879 6.0879 0 0 1 2.22885 8.3148l-13.92885 24.1254a6.08985 6.08985 0 0 1-5.27865 3.04395zM727.69535 144.4835a6.0879 6.0879 0 0 1-5.26695-9.13185l13.92885-24.1254a6.07815 6.07815 0 0 1 8.31675-2.2269 6.0879 6.0879 0 0 1 2.22885 8.3148l-13.92885 24.1254a6.08985 6.08985 0 0 1-5.27865 3.04395zM354.92555 949.65215a6.08985 6.08985 0 0 1-5.7213-8.17245l9.52965-26.1768a6.0879 6.0879 0 0 1 11.4387 4.1652l-9.5277 26.1768a6.0879 6.0879 0 0 1-5.71935 4.00725zM659.5487 112.7024a6.0879 6.0879 0 0 1-5.71935-8.17245l9.5277-26.1768a6.0879 6.0879 0 0 1 11.44065 4.1652l-9.52965 26.1768a6.084 6.084 0 0 1-5.71935 4.00725zM432.2567 970.37285a6.0879 6.0879 0 0 1-6.00015-7.1448l4.83795-27.4326a6.0879 6.0879 0 0 1 11.99055 2.11185l-4.83795 27.43455a6.09375 6.09375 0 0 1-5.9904 5.031zM586.919 93.2414a6.0879 6.0879 0 0 1-6.00015-7.1448l4.83795-27.43455a6.0879 6.0879 0 0 1 11.99055 2.11185l-4.83795 27.43455a6.09375 6.09375 0 0 1-5.9904 5.03295zM478.33325 133.35095a6.084 6.084 0 0 1-6.0567-5.55555l-6.36675-72.77595a6.08595 6.08595 0 0 1 5.5341-6.5949 6.07425 6.07425 0 0 1 6.59295 5.5341l6.36675 72.77595a6.08595 6.08595 0 0 1-6.07035 6.61635zM552.01985 975.6008a6.084 6.084 0 0 1-6.0567-5.55555l-6.36675-72.77595a6.08595 6.08595 0 0 1 5.5341-6.5949 6.0645 6.0645 0 0 1 6.59295 5.5341l6.36675 72.77595a6.08595 6.08595 0 0 1-6.07035 6.61635zM412.0391 145.04315c-2.68905 0-5.148-1.794-5.87535-4.5123l-18.90915-70.56465a6.084 6.084 0 0 1 4.30365-7.45485 6.0723 6.0723 0 0 1 7.45485 4.30365l18.90915 70.56465a6.084 6.084 0 0 1-5.88315 7.6635zM630.86225 961.69925c-2.68905 0-5.148-1.794-5.87535-4.5123l-18.9072-70.56465a6.084 6.084 0 0 1 4.30365-7.45485 6.07425 6.07425 0 0 1 7.45485 4.30365l18.9072 70.56465a6.084 6.084 0 0 1-5.88315 7.6635zM348.78695 168.0668a6.0879 6.0879 0 0 1-5.52045-3.51585l-30.87435-66.2103a6.0879 6.0879 0 1 1 11.0331-5.1441l30.87435 66.2103a6.0879 6.0879 0 0 1-5.51265 8.65995zM706.0952 934.3193a6.0879 6.0879 0 0 1-5.52045-3.51585l-30.8724-66.2103a6.0879 6.0879 0 1 1 11.0331-5.1441l30.8724 66.2103a6.0879 6.0879 0 0 1-5.51265 8.65995zM290.4878 201.72575a6.0879 6.0879 0 0 1-4.99395-2.59545l-41.90355-59.84355a6.0879 6.0879 0 1 1 9.9762-6.98295l41.90355 59.84355a6.0918 6.0918 0 0 1-4.98225 9.5784zM775.42745 894.29165a6.0879 6.0879 0 0 1-4.99395-2.59545l-41.9016-59.84355a6.0879 6.0879 0 1 1 9.9762-6.98295l41.89965 59.84355a6.0918 6.0918 0 0 1-4.9803 9.5784zM238.9103 245.00015a6.0723 6.0723 0 0 1-4.30365-1.7823L182.9492 191.55845a6.0879 6.0879 0 0 1 8.60925-8.60925l51.65745 51.65745a6.0879 6.0879 0 0 1-4.3056 10.3935zM836.74715 842.8331a6.0723 6.0723 0 0 1-4.30365-1.7823l-51.65745-51.65745a6.0879 6.0879 0 0 1 8.60925-8.60925l51.65745 51.65745a6.0879 6.0879 0 0 1-4.3056 10.39155zM195.632 296.56985a6.0606 6.0606 0 0 1-3.4866-1.10175L132.3038 253.5665a6.08985 6.08985 0 0 1 6.9849-9.97425l59.8416 41.89965a6.0918 6.0918 0 0 1-3.4983 11.07795zM888.19985 781.5095a6.0606 6.0606 0 0 1-3.4866-1.10175l-59.84355-41.89965a6.0918 6.0918 0 0 1-1.49565-8.4786 6.0918 6.0918 0 0 1 8.48055-1.49565l59.84355 41.9016a6.0918 6.0918 0 0 1 1.49565 8.4786 6.0918 6.0918 0 0 1-4.99395 2.59545zM161.975 354.87095c-0.8619 0-1.7355-0.1833-2.56815-0.5733L93.1985 323.42525a6.084 6.084 0 1 1 5.14215-11.0331l66.2103 30.8724a6.084 6.084 0 0 1-2.57595 11.6064zM928.2275 712.18115c-0.8619 0-1.73745-0.1833-2.57205-0.5733l-66.20835-30.8724a6.084 6.084 0 1 1 5.148-11.0331l66.20835 30.8724a6.084 6.084 0 0 1 2.94255 8.0886 6.084 6.084 0 0 1-5.5185 3.5178zM138.9572 418.13285a6.006 6.006 0 0 1-1.5795-0.2106l-70.5666-18.9072a6.084 6.084 0 0 1-4.30365-7.45485 6.07425 6.07425 0 0 1 7.45485-4.30365l70.5666 18.9072a6.084 6.084 0 0 1 4.30365 7.45485 6.09375 6.09375 0 0 1-5.87535 4.51425zM955.6133 636.95405a6.006 6.006 0 0 1-1.5795-0.2106l-70.5666-18.90915a6.084 6.084 0 0 1-4.30365-7.45485 6.07815 6.07815 0 0 1 7.45485-4.30365l70.5666 18.90915a6.084 6.084 0 0 1 4.30365 7.45485 6.084 6.084 0 0 1-5.87535 4.51425zM127.26695 484.427c-0.1794 0-0.35685-0.0078-0.5382-0.02535l-72.77595-6.36675a6.084 6.084 0 0 1-5.53215-6.5949 6.084 6.084 0 0 1 6.5949-5.5341l72.77595 6.36675a6.084 6.084 0 0 1 5.53215 6.5949 6.084 6.084 0 0 1-6.0567 5.55945zM969.5207 558.11555c-0.1755 0-0.35685-0.0078-0.53625-0.02535l-72.7779-6.36675a6.084 6.084 0 0 1-5.5341-6.5949 6.0723 6.0723 0 0 1 6.59295-5.5341l72.7779 6.36675a6.084 6.084 0 0 1 5.5341 6.5949 6.08595 6.08595 0 0 1-6.0567 5.55945zM54.48125 558.11555a6.08595 6.08595 0 0 1-0.52455-12.15045l72.77595-6.36675a6.05865 6.05865 0 0 1 6.5949 5.5341 6.08595 6.08595 0 0 1-5.53215 6.5949l-72.77595 6.36675a7.215 7.215 0 0 1-0.5382 0.02145zM896.7311 484.427a6.084 6.084 0 0 1-0.5226-12.15045l72.7779-6.36675c3.3696-0.3159 6.2985 2.1879 6.59295 5.5341a6.08595 6.08595 0 0 1-5.5341 6.5949l-72.7779 6.36675a7.20525 7.20525 0 0 1-0.53625 0.02145zM68.38475 636.95405a6.084 6.084 0 0 1-1.5717-11.96715l70.5666-18.90915a6.0801 6.0801 0 0 1 7.45485 4.30365 6.084 6.084 0 0 1-4.30365 7.45485l-70.5666 18.90915a6.0645 6.0645 0 0 1-1.5795 0.20865zM885.0428 418.13285a6.0879 6.0879 0 0 1-1.5717-11.96715l70.5666-18.9072a6.08205 6.08205 0 0 1 7.45485 4.30365 6.084 6.084 0 0 1-4.30365 7.45485l-70.5666 18.9072a6.14835 6.14835 0 0 1-1.5795 0.20865zM95.77055 712.18115a6.084 6.084 0 0 1-2.574-11.6064l66.2103-30.8724a6.084 6.084 0 1 1 5.14215 11.0331l-66.2103 30.8724a6.05085 6.05085 0 0 1-2.56815 0.5733zM862.025 354.87095a6.0879 6.0879 0 0 1-2.5779-11.60445l66.20835-30.8724a6.0879 6.0879 0 1 1 5.148 11.0331l-66.20835 30.8724a6.0567 6.0567 0 0 1-2.5701 0.57135zM135.8021 781.5095a6.0879 6.0879 0 0 1-3.4983-11.07405l59.8416-41.9016a6.0879 6.0879 0 1 1 6.9849 9.97425l-59.8416 41.89965a6.07035 6.07035 0 0 1-3.4866 1.10175zM828.36605 296.56985a6.0879 6.0879 0 0 1-3.4983-11.07405l59.84355-41.89965a6.0879 6.0879 0 1 1 6.9849 9.97425l-59.84355 41.89965a6.084 6.084 0 0 1-3.4866 1.0998zM187.2548 842.8331a6.0879 6.0879 0 0 1-4.30365-10.39155l51.65745-51.65745a6.0879 6.0879 0 0 1 8.60925 8.60925l-51.65745 51.65745c-1.1895 1.18755-2.7495 1.7823-4.3056 1.7823zM785.09165 245.00015a6.0879 6.0879 0 0 1-4.30365-10.39155l51.65745-51.65745a6.0879 6.0879 0 0 1 8.60925 8.60925l-51.65745 51.65745a6.09375 6.09375 0 0 1-4.3056 1.7823zM248.57255 894.29165a6.0918 6.0918 0 0 1-4.98225-9.58035l41.90355-59.84355a6.0918 6.0918 0 0 1 8.48055-1.49565 6.0918 6.0918 0 0 1 1.49565 8.4786l-41.90355 59.84355a6.084 6.084 0 0 1-4.99395 2.5974zM733.5122 201.72575a6.0918 6.0918 0 0 1-4.98225-9.58035l41.9016-59.84355a6.08985 6.08985 0 0 1 9.9762 6.98295l-41.89965 59.84355a6.0879 6.0879 0 0 1-4.9959 2.5974zM317.9048 934.3193a6.084 6.084 0 0 1-5.5146-8.6619l30.87435-66.2103a6.084 6.084 0 1 1 11.0331 5.1441l-30.87435 66.2103a6.08205 6.08205 0 0 1-5.5185 3.5178zM675.21695 168.0668a6.084 6.084 0 0 1-5.5146-8.6619l30.8724-66.2103a6.0879 6.0879 0 0 1 11.0331 5.1441L680.73545 164.549a6.08595 6.08595 0 0 1-5.5185 3.5178zM393.13775 961.69925a6.084 6.084 0 0 1-5.88315-7.66545l18.90915-70.56465a6.084 6.084 0 0 1 7.45485-4.30365 6.084 6.084 0 0 1 4.30365 7.45485l-18.90915 70.56465a6.08595 6.08595 0 0 1-5.87535 4.51425zM611.96285 145.04315a6.084 6.084 0 0 1-5.88315-7.66545l18.9072-70.56465a6.0684 6.0684 0 0 1 7.45485-4.30365 6.084 6.084 0 0 1 4.30365 7.45485l-18.9072 70.56465a6.0918 6.0918 0 0 1-5.87535 4.51425zM471.9782 975.6008a6.084 6.084 0 0 1-6.07035-6.62025l6.36675-72.77595a6.0762 6.0762 0 0 1 6.59295-5.5341 6.084 6.084 0 0 1 5.5341 6.5949l-6.36675 72.77595a6.08595 6.08595 0 0 1-6.0567 5.55945zM545.6648 133.35095a6.084 6.084 0 0 1-6.07035-6.62025l6.36675-72.77595a6.0567 6.0567 0 0 1 6.59295-5.5341 6.084 6.084 0 0 1 5.5341 6.5949L551.7215 127.7915a6.08205 6.08205 0 0 1-6.0567 5.55945z" fill="#F2F2F2" p-id="1226"></path><path d="M572.3096 572.3096L841.31015 182.68985 451.6904 451.6904 182.68985 841.31015z" fill="#F2F2F2" p-id="1227"></path><path d="M572.3096 572.3096L841.31015 182.68985 182.68985 841.31015z" fill="#CCCCCC" p-id="1228"></path><path d="M572.3096 572.3096L841.31015 182.68985 451.6904 451.6904z" fill="#FF525D" p-id="1229"></path><path d="M572.3096 572.3096L841.31015 182.68985 512 512z" fill="#EF4152" p-id="1230"></path></svg>